<svg width="1600" height="1200" viewBox="0 0 1600 1200" fill="none" xmlns="http://www.w3.org/2000/svg">
  <defs>
    <linearGradient id="g" x1="0" y1="0" x2="1" y2="1">
      <stop offset="0" stop-color="#121216"/>
      <stop offset="1" stop-color="#0b0b0e"/>
    </linearGradient>
    <radialGradient id="s" cx="0" cy="0" r="1" gradientUnits="userSpaceOnUse" gradientTransform="translate(980 520) rotate(90) scale(520 620)">
      <stop stop-color="#ffffff" stop-opacity="0.10"/>
      <stop offset="1" stop-color="#ffffff" stop-opacity="0"/>
    </radialGradient>
  </defs>
  <rect width="1600" height="1200" fill="url(#g)"/>
  <ellipse cx="980" cy="540" rx="560" ry="420" fill="url(#s)"/>
  <g opacity="0.92">
    <path d="M520 640C640 540 820 500 980 520C1140 540 1240 620 1300 740C1160 860 940 920 740 860C600 820 520 740 520 640Z" fill="#1a1a20"/>
    <path d="M680 640C760 580 880 560 990 572C1090 582 1160 630 1200 700C1090 780 930 820 800 790C720 770 670 720 680 640Z" fill="#202028"/>
  </g>
</svg>
